<svg width="48" height="71" viewBox="0 0 48 71" fill="none" xmlns="http://www.w3.org/2000/svg">
<path d="M18.752 51.048V45.192C18.752 42.248 19.296 39.944 20.384 38.28C21.472 36.552 23.392 35.08 26.144 33.864L28.832 32.712C32.16 31.304 34.752 29.64 36.608 27.72C38.464 25.736 39.392 22.984 39.392 19.464C39.392 16.84 38.72 14.632 37.376 12.84C36.032 11.048 34.208 9.672 31.904 8.712C29.6 7.752 27.008 7.272 24.128 7.272C21.248 7.272 18.56 7.784 16.064 8.808C13.632 9.768 11.648 11.272 10.112 13.32C8.64 15.304 7.904 17.832 7.904 20.904V24.264H0.128V20.904C0.128 16.488 1.152 12.776 3.2 9.768C5.312 6.696 8.16 4.392 11.744 2.856C15.392 1.256 19.52 0.455996 24.128 0.455996C28.672 0.455996 32.672 1.288 36.128 2.952C39.648 4.552 42.368 6.792 44.288 9.672C46.272 12.488 47.264 15.752 47.264 19.464C47.264 23.112 46.56 26.152 45.152 28.584C43.808 30.952 42.048 32.936 39.872 34.536C37.696 36.072 35.296 37.416 32.672 38.568L30.08 39.72C28.864 40.232 28 40.904 27.488 41.736C26.976 42.568 26.72 43.752 26.72 45.288V51.048H18.752ZM22.88 70.344C20.96 70.344 19.392 69.736 18.176 68.52C16.96 67.304 16.352 65.736 16.352 63.816C16.352 61.896 16.96 60.328 18.176 59.112C19.392 57.896 20.96 57.288 22.88 57.288C24.736 57.288 26.272 57.896 27.488 59.112C28.768 60.328 29.408 61.896 29.408 63.816C29.408 65.736 28.768 67.304 27.488 68.52C26.272 69.736 24.736 70.344 22.88 70.344Z" fill="black"/>
</svg>
